<?xml version="1.0" encoding="utf-8"?>
<!-- Generator: Adobe Illustrator 24.0.2, SVG Export Plug-In . SVG Version: 6.00 Build 0)  -->
<svg version="1.1" id="Layer_1" xmlns="http://www.w3.org/2000/svg" xmlns:xlink="http://www.w3.org/1999/xlink" x="0px" y="0px"
	 viewBox="0 0 643.4 149" style="enable-background:new 0 0 643.4 149;" xml:space="preserve">
<style type="text/css">
	.st0{fill:#FFFFFF;stroke:#000000;stroke-miterlimit:10;}
	.st1{fill:none;stroke:#000000;stroke-miterlimit:10;}
	.st2{enable-background:new    ;}
	.st3{fill:none;stroke:#000000;stroke-linejoin:round;}
	.st4{fill:none;stroke:#000000;stroke-linejoin:round;stroke-miterlimit:10;}
</style>
<g>
	<g>
		<line class="st1" x1="57.8" y1="73" x2="96.5" y2="73"/>
		<g>
			<path d="M95.1,73l-1.7-3.6l0.1-0.1l4.5,2.3c1.5,0.5,3.1,0.9,4.7,1.4c-1.5,0.5-3.1,0.9-4.7,1.4l-4.5,2.3l-0.1-0.1L95.1,73z"/>
		</g>
	</g>
</g>
<g>
	<g>
		<line class="st1" x1="3.7" y1="73" x2="22" y2="73"/>
		<g>
			<path d="M20.2,73L18,69.4l0.1-0.1l5.9,2.4c2,0.5,4.1,0.9,6.1,1.4c-2,0.5-4.1,0.9-6.1,1.4l-5.9,2.3L18,76.7L20.2,73z"/>
		</g>
	</g>
</g>
<circle class="st0" cx="44" cy="73" r="13.8"/>
<g>
	<g>
		<line class="st1" x1="195.7" y1="103.5" x2="306" y2="103.5"/>
		<g>
			<path d="M304.3,103.5l-2-3.6l0.1-0.1l5.3,2.3c1.8,0.5,3.7,0.9,5.5,1.4c-1.8,0.5-3.7,0.9-5.5,1.4l-5.3,2.3l-0.1-0.1L304.3,103.5z"
				/>
		</g>
	</g>
</g>
<g>
	<g>
		<line class="st1" x1="327.1" y1="75.9" x2="327.1" y2="83.7"/>
		<line class="st1" x1="327.1" y1="57.3" x2="327.1" y2="75.9"/>
		<g>
			<path d="M327.1,82.4l3.6-1.6l0.1,0.1l-2.3,4.3c-0.5,1.4-0.9,3-1.4,4.4c-0.5-1.4-0.9-3-1.4-4.4l-2.3-4.3l0.1-0.1L327.1,82.4z"/>
		</g>
	</g>
</g>
<g>
	<g>
		<line class="st1" x1="406.5" y1="73" x2="443.3" y2="73"/>
		<g>
			<path d="M441.5,73l-2.2-3.6l0.1-0.1l5.9,2.3c2,0.5,4.1,0.9,6.1,1.4c-2,0.5-4.1,0.9-6.1,1.4l-5.9,2.3l-0.1-0.1L441.5,73z"/>
		</g>
	</g>
</g>
<g>
	<g>
		<line class="st1" x1="479.1" y1="73" x2="515.9" y2="73"/>
		<g>
			<path d="M514.1,73l-2.2-3.6l0.1-0.1l5.9,2.3c2,0.5,4.1,0.9,6.1,1.4c-2,0.5-4.1,0.9-6.1,1.4l-5.9,2.3l-0.1-0.1L514.1,73z"/>
		</g>
	</g>
</g>
<g>
	<g>
		<line class="st1" x1="551.7" y1="73" x2="588.5" y2="73"/>
		<g>
			<path d="M586.7,73l-2.2-3.6l0.1-0.1l5.9,2.3c2,0.5,4.1,0.9,6.1,1.4c-2,0.5-4.1,0.9-6.1,1.4l-5.9,2.3l-0.1-0.1L586.7,73z"/>
		</g>
	</g>
</g>
<g>
	<g>
		<line class="st1" x1="128.5" y1="66.1" x2="160.4" y2="47.7"/>
		<g>
			<path d="M158.9,48.6l-3.7-2l0.1-0.1l6.3-0.9c2-0.6,4-1.3,6-1.9c-1.5,1.4-3.1,2.8-4.6,4.2l-3.9,5H159L158.9,48.6z"/>
		</g>
	</g>
</g>
<g>
	<g>
		<line class="st1" x1="338.5" y1="95.8" x2="370.9" y2="77.1"/>
		<g>
			<path d="M369.4,78l-3.7-2l0.1-0.1l6.3-0.9c2-0.6,4-1.3,6-1.9c-1.5,1.4-3.1,2.8-4.6,4.2l-3.9,5h-0.1L369.4,78z"/>
		</g>
	</g>
</g>
<g>
	<g>
		<line class="st1" x1="128.5" y1="79.9" x2="160.4" y2="98.3"/>
		<g>
			<path d="M158.9,97.4l-0.1-4.2h0.1l3.9,5c1.5,1.4,3.1,2.8,4.6,4.2c-2-0.6-4-1.3-6-1.9l-6.3-0.9l-0.1-0.1L158.9,97.4z"/>
		</g>
	</g>
</g>
<ellipse transform="matrix(0.9951 -9.853759e-02 9.853759e-02 0.9951 -6.6236 11.8446)" class="st0" cx="116.6" cy="73" rx="13.8" ry="13.8"/>
<circle class="st0" cx="327.1" cy="43.5" r="13.8"/>
<circle class="st0" cx="327.1" cy="103.5" r="13.8"/>
<circle class="st0" cx="465.3" cy="73" r="13.8"/>
<circle class="st0" cx="537.9" cy="73" r="13.8"/>
<g class="st2">
	<path d="M78.9,64.7v1.6h-11v-1.6H78.9z"/>
</g>
<g>
	<g>
		<line class="st1" x1="195.7" y1="43.5" x2="232.5" y2="43.5"/>
		<g>
			<path d="M230.8,43.5l-2.2-3.6l0.1-0.1l5.9,2.3c2,0.5,4.1,0.9,6.1,1.4c-2,0.5-4.1,0.9-6.1,1.4l-5.9,2.3l-0.1-0.1L230.8,43.5z"/>
		</g>
	</g>
</g>
<g class="st2">
	<path d="M216.8,35.1v1.6h-11v-1.6H216.8z"/>
</g>
<g>
	<g>
		<line class="st1" x1="268.3" y1="43.5" x2="305.1" y2="43.5"/>
		<g>
			<path d="M303.3,43.5l-2.2-3.6l0.1-0.1l5.9,2.3c2,0.5,4.2,0.9,6.2,1.4c-2,0.5-4.2,0.9-6.2,1.4l-5.9,2.3l-0.1-0.1L303.3,43.5z"/>
		</g>
	</g>
</g>
<g class="st2">
	<path d="M167.8,115.1v1.6h-11v-1.6H167.8z"/>
</g>
<g class="st2">
	<path d="M409.6,95.1v1.6h-11v-1.6H409.6z"/>
</g>
<g class="st2">
	<path d="M627,95.1v1.6h-11v-1.6H627z"/>
</g>
<g class="st2">
	<path d="M147.5,47.5v1.6h-11v-1.6H147.5z"/>
</g>
<circle class="st0" cx="181.9" cy="43.5" r="13.8"/>
<circle class="st0" cx="254.5" cy="43.5" r="13.8"/>
<g>
	<g>
		<polyline class="st3" points="127.3,92.1 139.8,122.4 181.9,122.4 181.9,117.3 		"/>
		<g>
			<path d="M128,93.7l4.2,0.7v-0.1l-4.4-4.5c-1.2-1.7-2.4-3.4-3.6-5.2c0.4,2.1,0.7,4.1,1.1,6.2l0.1,6.3l0.1,0.1L128,93.7z"/>
		</g>
	</g>
</g>
<g>
	<g>
		<polyline class="st3" points="120.7,94.7 129.8,130.8 392.7,131.7 392.7,86.8 		"/>
		<g>
			<path d="M121.1,96.5l4,1.2v-0.1l-3.7-5.1c-0.9-1.9-1.9-3.7-2.8-5.6c0.1,2.1,0.1,4.2,0.2,6.3l-0.8,6.3l0.1,0.1L121.1,96.5z"/>
		</g>
	</g>
</g>
<g>
	<g>
		<polyline class="st3" points="112.6,94.4 112.6,142.1 610.4,143.2 610.4,86.8 		"/>
		<g>
			<path d="M112.6,96.2l3.6,2.2l0.1-0.1l-2.3-5.9c-0.5-2-0.9-4.1-1.4-6.1c-0.5,2-0.9,4.1-1.4,6.1l-2.3,5.9l0.1,0.1L112.6,96.2z"/>
		</g>
	</g>
</g>
<circle class="st0" cx="181.9" cy="103.5" r="13.8"/>
<circle class="st0" cx="392.7" cy="73" r="13.8"/>
<circle class="st0" cx="610.4" cy="73" r="13.8"/>
<circle class="st0" cx="181.9" cy="103.5" r="11.5"/>
<circle class="st0" cx="327.1" cy="43.5" r="11.5"/>
<g class="st2">
	<path d="M48,48.8c0,4-1.5,6.2-4.1,6.2c-2.3,0-3.8-2.1-3.9-6c0-3.9,1.7-6.1,4.1-6.1C46.6,42.9,48,45.1,48,48.8z M41.6,49
		c0,3,0.9,4.8,2.4,4.8c1.6,0,2.4-1.9,2.4-4.9c0-2.9-0.7-4.8-2.4-4.8C42.6,44.1,41.6,45.8,41.6,49z"/>
</g>
<g class="st2">
	<path d="M105.2,46.6L105.2,46.6l-2.1,1.1l-0.3-1.2l2.6-1.4h1.4v11.7h-1.5V46.6z"/>
</g>
<g class="st2">
	<path d="M396.5,43.1v1l-5.1,10.7h-1.6l5.1-10.4v0h-5.7v-1.3H396.5z"/>
</g>
<g class="st2">
	<path d="M461.3,51.8c0-1.5,0.9-2.5,2.3-3.1l0-0.1c-1.3-0.6-1.9-1.6-1.9-2.6c0-1.9,1.6-3.1,3.6-3.1c2.3,0,3.4,1.4,3.4,2.9
		c0,1-0.5,2.1-1.9,2.7v0.1c1.5,0.6,2.4,1.6,2.4,3c0,2-1.7,3.4-4,3.4C462.8,55,461.3,53.5,461.3,51.8z M467.6,51.7
		c0-1.4-1-2.1-2.6-2.6c-1.4,0.4-2.1,1.3-2.1,2.4c-0.1,1.2,0.8,2.2,2.3,2.2C466.7,53.8,467.6,52.9,467.6,51.7z M463.3,45.9
		c0,1.2,0.9,1.8,2.2,2.2c1-0.3,1.8-1.1,1.8-2.1c0-0.9-0.6-1.9-2-1.9C464,44,463.3,44.9,463.3,45.9z"/>
</g>
<g class="st2">
	<path d="M535,53.7c0.3,0,0.7,0,1.3-0.1c0.9-0.1,1.8-0.5,2.4-1.1c0.8-0.7,1.3-1.7,1.5-3.1h-0.1c-0.6,0.8-1.6,1.3-2.8,1.3
		c-2.1,0-3.5-1.6-3.5-3.6c0-2.2,1.6-4.2,4-4.2s3.9,1.9,3.9,4.9c0,2.6-0.9,4.4-2,5.5c-0.9,0.9-2.1,1.4-3.4,1.6
		c-0.6,0.1-1.1,0.1-1.5,0.1V53.7z M535.5,46.9c0,1.5,0.9,2.5,2.2,2.5c1.1,0,1.9-0.5,2.3-1.2c0.1-0.1,0.1-0.3,0.1-0.6
		c0-2-0.7-3.5-2.4-3.5C536.5,44.1,535.5,45.3,535.5,46.9z"/>
</g>
<g class="st2">
	<path d="M605.5,44.6L605.5,44.6l-2.1,1.1l-0.3-1.2l2.6-1.4h1.4v11.7h-1.5V44.6z"/>
	<path d="M619,48.8c0,4-1.5,6.2-4.1,6.2c-2.3,0-3.8-2.1-3.9-6c0-3.9,1.7-6.1,4.1-6.1C617.6,42.9,619,45.1,619,48.8z M612.7,49
		c0,3,0.9,4.8,2.4,4.8c1.6,0,2.4-1.9,2.4-4.9c0-2.9-0.7-4.8-2.4-4.8C613.7,44.1,612.7,45.8,612.7,49z"/>
</g>
<g class="st2">
	<path d="M178.1,25.7v-1l1.2-1.2c3-2.8,4.3-4.4,4.4-6.1c0-1.2-0.6-2.3-2.3-2.3c-1.1,0-1.9,0.5-2.5,1l-0.5-1.1c0.8-0.7,2-1.2,3.3-1.2
		c2.5,0,3.6,1.7,3.6,3.4c0,2.2-1.6,3.9-4,6.3l-0.9,0.9v0h5.3v1.3H178.1z"/>
</g>
<g class="st2">
	<path d="M185.1,76.4h-4.5l-0.5,3c0.3,0,0.5-0.1,1-0.1c0.9,0,1.8,0.2,2.5,0.6c0.9,0.5,1.7,1.5,1.7,3c0,2.3-1.8,4-4.4,4
		c-1.3,0-2.4-0.4-2.9-0.7l0.4-1.2c0.5,0.3,1.4,0.6,2.5,0.6c1.5,0,2.8-1,2.8-2.5c0-1.5-1-2.6-3.4-2.6c-0.7,0-1.2,0.1-1.6,0.1l0.8-5.6
		h5.6V76.4z"/>
</g>
<g class="st2">
	<path d="M340.6,78.2c-0.3,0-0.7,0-1.2,0.1c-2.5,0.4-3.8,2.2-4.1,4.2h0.1c0.6-0.7,1.5-1.4,2.8-1.4c2.1,0,3.5,1.5,3.5,3.8
		c0,2.1-1.5,4.1-3.9,4.1c-2.5,0-4.1-1.9-4.1-5c0-2.3,0.8-4.1,2-5.3c1-1,2.3-1.5,3.7-1.7c0.5-0.1,0.9-0.1,1.2-0.1V78.2z M340.2,85
		c0-1.7-1-2.7-2.4-2.7c-1,0-1.8,0.6-2.3,1.4c-0.1,0.2-0.2,0.4-0.2,0.7c0,1.9,0.9,3.3,2.6,3.3C339.3,87.8,340.2,86.6,340.2,85z"/>
</g>
<g class="st2">
	<path d="M251.1,23.9c0.5,0.3,1.5,0.7,2.6,0.7c2,0,2.7-1.3,2.6-2.3c0-1.6-1.5-2.3-3-2.3h-0.9v-1.2h0.9c1.2,0,2.6-0.6,2.6-2
		c0-0.9-0.6-1.8-2.1-1.8c-0.9,0-1.8,0.4-2.3,0.8l-0.4-1.2c0.6-0.5,1.8-0.9,3.1-0.9c2.3,0,3.3,1.4,3.3,2.8c0,1.2-0.7,2.2-2.2,2.8v0
		c1.4,0.3,2.6,1.4,2.6,3c0,1.9-1.5,3.5-4.3,3.5c-1.3,0-2.5-0.4-3-0.8L251.1,23.9z"/>
</g>
<g class="st2">
	<path d="M338.8,29.7v-3.2h-5.4v-1l5.2-7.5h1.7v7.3h1.6v1.2h-1.6v3.2H338.8z M338.8,25.3v-3.9c0-0.6,0-1.2,0.1-1.8h-0.1
		c-0.4,0.7-0.6,1.2-1,1.7l-2.9,4v0H338.8z"/>
</g>
<g class="st2">
	<path d="M332.6,42.2v1.6h-11v-1.6H332.6z"/>
</g>
<g class="st2">
	<path d="M181,102.5c0-0.7,0.4-1.1,1.1-1.1s1.1,0.5,1.1,1.1c0,0.6-0.4,1.1-1.1,1.1C181.5,103.7,181,103.2,181,102.5z"/>
</g>
<polyline class="st0" points="397.8,73.2 397.8,78.8 387.6,78.8 387.6,73.2 "/>
<polyline class="st0" points="543,73.2 543,78.8 532.8,78.8 532.8,73.2 "/>
<polyline class="st0" points="615.5,73.2 615.5,78.8 605.3,78.8 605.3,73.2 "/>
<g>
	<g>
		<path class="st3" d="M116.6,51c0-14.9,0-44.8,0-44.8h210.5l0,0v23.5"/>
		<g>
			<path d="M116.6,49.2L113,47l-0.1,0.1l2.3,5.9c0.5,2,0.9,4.1,1.4,6.1c0.5-2,0.9-4.1,1.4-6.1l2.3-5.9l-0.1-0.1L116.6,49.2z"/>
		</g>
	</g>
</g>
</svg>
