<?xml version="1.0" encoding="utf-8"?>
<!-- Generator: Adobe Illustrator 24.0.2, SVG Export Plug-In . SVG Version: 6.00 Build 0)  -->
<svg version="1.1" id="Layer_1" xmlns="http://www.w3.org/2000/svg" xmlns:xlink="http://www.w3.org/1999/xlink" x="0px" y="0px"
	 viewBox="0 0 638.5 189.3" style="enable-background:new 0 0 638.5 189.3;" xml:space="preserve">
<style type="text/css">
	.st0{fill:#FFFFFF;stroke:#000000;stroke-miterlimit:10;}
	.st1{fill:none;stroke:#000000;stroke-miterlimit:10;}
	.st2{enable-background:new    ;}
	.st3{fill:none;stroke:#000000;stroke-linejoin:round;}
	.st4{fill:none;stroke:#000000;stroke-linejoin:round;stroke-miterlimit:10;}
</style>
<g>
	<g>
		<line class="st1" x1="57.8" y1="114.4" x2="94.6" y2="114.4"/>
		<g>
			<path d="M92.8,114.4l-2.2-3.6l0.1-0.1l5.9,2.3c2,0.5,4.1,0.9,6.1,1.4c-2,0.5-4.1,0.9-6.1,1.4l-5.9,2.3l-0.1-0.1L92.8,114.4z"/>
		</g>
	</g>
</g>
<g>
	<g>
		<line class="st1" x1="3.7" y1="114.4" x2="22" y2="114.4"/>
		<g>
			<path d="M20.2,114.4l-2.2-3.6l0.1-0.1L24,113c2,0.5,4.1,0.9,6.1,1.4c-2,0.5-4.1,0.9-6.1,1.4l-5.9,2.3L18,118L20.2,114.4z"/>
		</g>
	</g>
</g>
<circle class="st0" cx="44" cy="114.4" r="13.8"/>
<g>
	<g>
		<line class="st1" x1="195.7" y1="145" x2="305.1" y2="145"/>
		<g>
			<path d="M303.3,145l-2.2-3.6l0.1-0.1l5.9,2.3c2,0.5,4.1,0.9,6.1,1.4c-2,0.5-4.1,0.9-6.1,1.4l-5.9,2.3l-0.1-0.1L303.3,145z"/>
		</g>
	</g>
</g>
<g>
	<g>
		<line class="st1" x1="327.1" y1="98.7" x2="327.1" y2="125.3"/>
		<g>
			<path d="M327.1,124l3.6-1.6l0.1,0.1l-2.3,4.3c-0.5,1.4-0.9,3-1.4,4.4c-0.5-1.4-0.9-3-1.4-4.4l-2.3-4.3l0.1-0.1L327.1,124z"/>
		</g>
	</g>
</g>
<g>
	<g>
		<line class="st1" x1="406.5" y1="114.4" x2="443.3" y2="114.4"/>
		<g>
			<path d="M441.5,114.4l-2.2-3.6l0.1-0.1l5.9,2.3c2,0.5,4.1,0.9,6.1,1.4c-2,0.5-4.1,0.9-6.1,1.4l-5.9,2.3l-0.1-0.1L441.5,114.4z"/>
		</g>
	</g>
</g>
<g>
	<g>
		<line class="st1" x1="479.1" y1="114.4" x2="515.9" y2="114.4"/>
		<g>
			<path d="M514.1,114.4l-2.2-3.6l0.1-0.1l5.9,2.3c2,0.5,4.1,0.9,6.1,1.4c-2,0.5-4.1,0.9-6.1,1.4l-5.9,2.3l-0.1-0.1L514.1,114.4z"/>
		</g>
	</g>
</g>
<g>
	<g>
		<line class="st1" x1="551.7" y1="114.4" x2="588.5" y2="114.4"/>
		<g>
			<path d="M586.7,114.4l-2.2-3.6l0.1-0.1l5.9,2.3c2,0.5,4.1,0.9,6.1,1.4c-2,0.5-4.1,0.9-6.1,1.4l-5.9,2.3l-0.1-0.1L586.7,114.4z"/>
		</g>
	</g>
</g>
<g>
	<g>
		<line class="st1" x1="128.5" y1="107.5" x2="160.4" y2="89.1"/>
		<g>
			<path d="M158.9,90l-3.7-2l0.1-0.1l6.3-0.9c2-0.6,4-1.3,6-1.9c-1.5,1.4-3.1,2.8-4.6,4.2l-3.9,5H159L158.9,90z"/>
		</g>
	</g>
</g>
<g>
	<g>
		<line class="st1" x1="338.5" y1="137.2" x2="370.9" y2="118.5"/>
		<g>
			<path d="M369.4,119.4l-3.7-2l0.1-0.1l6.3-0.9c2-0.6,4-1.3,6-1.9c-1.5,1.4-3.1,2.8-4.6,4.2l-3.9,5h-0.1L369.4,119.4z"/>
		</g>
	</g>
</g>
<g>
	<g>
		<line class="st1" x1="128.5" y1="121.3" x2="160.4" y2="139.7"/>
		<g>
			<path d="M158.9,138.8l-0.1-4.2h0.1l3.9,5c1.5,1.4,3.1,2.8,4.6,4.2c-2-0.6-4-1.3-6-1.9l-6.3-0.9l-0.1-0.1L158.9,138.8z"/>
		</g>
	</g>
</g>
<circle class="st0" cx="327.1" cy="145" r="13.8"/>
<circle class="st0" cx="465.3" cy="114.4" r="13.8"/>
<circle class="st0" cx="537.9" cy="114.4" r="13.8"/>
<g class="st2">
	<path d="M78.9,106.1v1.6h-11v-1.6H78.9z"/>
</g>
<g>
	<g>
		<line class="st1" x1="195.7" y1="84.9" x2="232.5" y2="84.9"/>
		<g>
			<path d="M230.8,84.9l-2.2-3.6l0.1-0.1l5.9,2.3c2,0.5,4.1,0.9,6.1,1.4c-2,0.5-4.1,0.9-6.1,1.4l-5.9,2.3l-0.1-0.1L230.8,84.9z"/>
		</g>
	</g>
</g>
<g class="st2">
	<path d="M216.8,76.6v1.6h-11v-1.6H216.8z"/>
</g>
<g>
	<g>
		<line class="st1" x1="268.3" y1="84.9" x2="305.1" y2="84.9"/>
		<g>
			<path d="M303.3,84.9l-2.2-3.6l0.1-0.1l5.9,2.3c2,0.5,4.1,0.9,6.1,1.4c-2,0.5-4.1,0.9-6.1,1.4l-5.9,2.3l-0.1-0.1L303.3,84.9z"/>
		</g>
	</g>
</g>
<g class="st2">
	<path d="M167.8,156.6v1.6h-11v-1.6H167.8z"/>
</g>
<g class="st2">
	<path d="M409.6,136.6v1.6h-11v-1.6H409.6z"/>
</g>
<g class="st2">
	<path d="M627,136.6v1.6h-11v-1.6H627z"/>
</g>
<g class="st2">
	<path d="M147.5,89v1.6h-11V89H147.5z"/>
</g>
<circle class="st0" cx="181.9" cy="84.9" r="13.8"/>
<g>
	<g>
		<polyline class="st3" points="127.3,133.5 139.8,163.9 181.9,163.9 181.9,158.8 		"/>
		<g>
			<path d="M128,135.2l4.2,0.7v-0.1l-4.4-4.5c-1.2-1.7-2.4-3.4-3.6-5.2c0.4,2.1,0.7,4.1,1.1,6.2l0.1,6.3l0.1,0.1L128,135.2z"/>
		</g>
	</g>
</g>
<g>
	<g>
		<polyline class="st3" points="120.7,136.2 129.8,172.2 392.7,173.2 392.7,128.2 		"/>
		<g>
			<path d="M121.1,137.9l4,1.2V139l-3.7-5.1c-0.9-1.9-1.9-3.7-2.8-5.6c0.1,2.1,0.1,4.2,0.2,6.3l-0.8,6.3l0.1,0.1L121.1,137.9z"/>
		</g>
	</g>
</g>
<g>
	<g>
		<polyline class="st3" points="112.6,135.8 112.6,183.6 610.4,184.7 610.4,128.2 		"/>
		<g>
			<path d="M112.6,137.6l3.6,2.2l0.1-0.1l-2.3-5.9c-0.5-2-0.9-4.1-1.4-6.1c-0.5,2-0.9,4.1-1.4,6.1l-2.3,5.9l0.1,0.1L112.6,137.6z"/>
		</g>
	</g>
</g>
<circle class="st0" cx="181.9" cy="145" r="13.8"/>
<circle class="st0" cx="392.7" cy="114.4" r="13.8"/>
<circle class="st0" cx="610.4" cy="114.4" r="13.8"/>
<g class="st2">
	<path d="M332.6,83.6v1.6h-11v-1.6H332.6z"/>
</g>
<circle class="st0" cx="255.7" cy="23.9" r="13.8"/>
<ellipse transform="matrix(0.1602 -0.9871 0.9871 0.1602 191.1237 272.4923)" class="st0" cx="255.7" cy="23.9" rx="11.5" ry="11.5"/>
<g class="st2">
	<path d="M261.2,22.6v1.6h-11v-1.6H261.2z"/>
</g>
<g class="st2">
	<path d="M181.7,145.1c0-0.7,0.4-1.1,1.1-1.1s1.1,0.5,1.1,1.1c0,0.6-0.4,1.1-1.1,1.1C182.1,146.2,181.7,145.7,181.7,145.1z"/>
</g>
<circle class="st0" cx="68.2" cy="163.7" r="13.8"/>
<circle class="st0" cx="68.2" cy="163.7" r="11.5"/>
<g class="st2">
	<path d="M66.3,166.8c0-0.7,0.4-1.1,1.1-1.1c0.6,0,1.1,0.5,1.1,1.1c0,0.6-0.4,1.1-1.1,1.1C66.8,167.9,66.3,167.5,66.3,166.8z"/>
</g>
<polyline class="st0" points="397.8,114.6 397.8,120.3 387.6,120.3 387.6,114.6 "/>
<polyline class="st0" points="543,114.6 543,120.3 532.8,120.3 532.8,114.6 "/>
<polyline class="st0" points="615.5,114.6 615.5,120.3 605.3,120.3 605.3,114.6 "/>
<g>
	<g>
		<path class="st3" d="M116.6,92.4c0-11.8,0-32.1,0-32.1h210.5l0,0v10.8"/>
		<g>
			<path d="M116.6,90.7l-3.6-2.2l-0.1,0.1l2.3,5.9c0.5,2,0.9,4.1,1.4,6.1c0.5-2,0.9-4.1,1.4-6.1l2.3-5.9l-0.1-0.1L116.6,90.7z"/>
		</g>
	</g>
</g>
<g>
	<g>
		<line class="st1" x1="254.5" y1="71.1" x2="254.5" y2="45.9"/>
		<g>
			<path d="M254.5,47.7l-3.6,2.2l-0.1-0.1l2.3-5.9c0.5-2,0.9-4.1,1.4-6.1c0.5,2,0.9,4.1,1.4,6.1l2.3,5.9l-0.1,0.1L254.5,47.7z"/>
		</g>
	</g>
</g>
<g>
	<g>
		<line class="st1" x1="106.8" y1="124.2" x2="84.2" y2="146.8"/>
		<g>
			<path d="M85.5,145.5l4.1,1v0.1l-5.8,2.5c-1.8,1.1-3.5,2.3-5.3,3.4c1.1-1.8,2.3-3.5,3.4-5.3l2.5-5.8h0.1L85.5,145.5z"/>
		</g>
	</g>
</g>
<circle class="st0" cx="116.6" cy="114.4" r="13.8"/>
<ellipse transform="matrix(0.1602 -0.9871 0.9871 0.1602 129.9036 322.5367)" class="st0" cx="254.5" cy="84.9" rx="13.8" ry="13.8"/>
<g class="st2">
	<path d="M251.2,70.5c-0.7,0.4-2,0.8-3.2,0.8c-1.7,0-3.7-0.7-3.7-2.6c0-1.1,0.9-2,2.2-2.2v-0.1c-1.2-0.3-1.7-1-1.7-1.8
		c0-1.2,1.2-2.4,3.5-2.4c1.1,0,2,0.2,2.6,0.7l-0.3,1c-0.4-0.2-1.3-0.5-2.2-0.5c-1.2,0-2,0.5-2,1.3c0,0.9,1.1,1.2,2.4,1.2h1V67h-1.1
		c-1.6,0-2.7,0.4-2.7,1.5c0,1,1.1,1.6,2.4,1.6c1,0,2-0.4,2.6-0.7L251.2,70.5z"/>
</g>
<g class="st2">
	<path d="M101.1,145.4c-0.7,0.4-2,0.8-3.2,0.8c-1.7,0-3.7-0.7-3.7-2.6c0-1.1,0.9-2,2.2-2.2v-0.1c-1.2-0.3-1.7-1-1.7-1.8
		c0-1.2,1.2-2.4,3.5-2.4c1.1,0,2,0.2,2.6,0.7l-0.3,1c-0.4-0.2-1.3-0.5-2.2-0.5c-1.2,0-2,0.5-2,1.3c0,0.9,1.1,1.2,2.4,1.2h1v1.1h-1.1
		c-1.6,0-2.7,0.4-2.7,1.5c0,1,1.1,1.6,2.4,1.6c1,0,2-0.4,2.6-0.7L101.1,145.4z"/>
</g>
<circle class="st0" cx="327.1" cy="84.9" r="13.8"/>
</svg>
