<?xml version="1.0" encoding="utf-8"?>
<!-- Generator: Adobe Illustrator 24.0.2, SVG Export Plug-In . SVG Version: 6.00 Build 0)  -->
<svg version="1.1" id="Layer_1" xmlns="http://www.w3.org/2000/svg" xmlns:xlink="http://www.w3.org/1999/xlink" x="0px" y="0px"
	 viewBox="0 0 643.4 105.8" style="enable-background:new 0 0 643.4 105.8;" xml:space="preserve">
<style type="text/css">
	.st0{fill:#FFFFFF;stroke:#000000;stroke-miterlimit:10;}
	.st1{fill:none;stroke:#000000;stroke-miterlimit:10;}
	.st2{enable-background:new    ;}
	.st3{fill:none;stroke:#000000;stroke-linejoin:round;}
	.st4{fill:none;stroke:#000000;stroke-linejoin:round;stroke-miterlimit:10;}
</style>
<rect x="283.2" y="37.1" class="st0" width="22" height="14"/>
<rect x="429.4" y="37.1" class="st0" width="22" height="14"/>
<rect x="203.7" y="4.1" class="st0" width="22" height="14"/>
<g class="st2">
	<path d="M48,33.6c0,4-1.5,6.2-4.1,6.2c-2.3,0-3.8-2.1-3.9-6c0-3.9,1.7-6.1,4.1-6.1C46.6,27.7,48,29.9,48,33.6z M41.6,33.8
		c0,3,0.9,4.8,2.4,4.8c1.6,0,2.4-1.9,2.4-4.9c0-2.9-0.7-4.8-2.4-4.8C42.6,28.9,41.6,30.6,41.6,33.8z"/>
</g>
<g class="st2">
	<path d="M105.2,29.4L105.2,29.4l-2.1,1.1l-0.3-1.2l2.6-1.4h1.4v11.7h-1.5V29.4z"/>
</g>
<g class="st2">
	<path d="M185.4,39.6v-1l1.2-1.2c3-2.8,4.3-4.4,4.4-6.1c0-1.2-0.6-2.3-2.3-2.3c-1.1,0-1.9,0.5-2.5,1l-0.5-1.1c0.8-0.7,2-1.2,3.3-1.2
		c2.5,0,3.6,1.7,3.6,3.4c0,2.2-1.6,3.9-4,6.3l-0.9,0.9v0h5.3v1.3H185.4z"/>
</g>
<g class="st2">
	<path d="M258.3,37.8c0.5,0.3,1.5,0.7,2.6,0.7c2,0,2.7-1.3,2.6-2.3c0-1.6-1.5-2.3-3-2.3h-0.9v-1.2h0.9c1.2,0,2.6-0.6,2.6-2
		c0-0.9-0.6-1.8-2.1-1.8c-0.9,0-1.8,0.4-2.3,0.8l-0.4-1.2c0.6-0.5,1.8-0.9,3.1-0.9c2.3,0,3.3,1.4,3.3,2.8c0,1.2-0.7,2.2-2.2,2.8v0
		c1.4,0.3,2.6,1.4,2.6,3c0,1.9-1.5,3.5-4.3,3.5c-1.3,0-2.5-0.4-3-0.8L258.3,37.8z"/>
</g>
<g class="st2">
	<path d="M345.4,39.6v-3.2H340v-1l5.2-7.5h1.7v7.3h1.6v1.2h-1.6v3.2H345.4z M345.4,35.2v-3.9c0-0.6,0-1.2,0.1-1.8h-0.1
		c-0.4,0.7-0.6,1.2-1,1.7l-2.9,4v0H345.4z"/>
</g>
<g class="st2">
	<path d="M410.1,29.3h-4.5l-0.5,3c0.3,0,0.5-0.1,1-0.1c0.9,0,1.8,0.2,2.5,0.6c0.9,0.5,1.7,1.5,1.7,3c0,2.3-1.8,4-4.4,4
		c-1.3,0-2.4-0.4-2.9-0.7l0.4-1.2c0.5,0.3,1.4,0.6,2.5,0.6c1.5,0,2.8-1,2.8-2.5c0-1.5-1-2.6-3.4-2.6c-0.7,0-1.2,0.1-1.6,0.1l0.8-5.6
		h5.6V29.3z"/>
</g>
<g class="st2">
	<path d="M482.4,29c-0.3,0-0.7,0-1.2,0.1c-2.5,0.4-3.8,2.2-4.1,4.2h0.1c0.6-0.7,1.5-1.4,2.8-1.4c2.1,0,3.5,1.5,3.5,3.8
		c0,2.1-1.5,4.1-3.9,4.1c-2.5,0-4.1-1.9-4.1-5c0-2.3,0.8-4.1,2-5.3c1-1,2.3-1.5,3.7-1.7c0.5-0.1,0.9-0.1,1.2-0.1V29z M481.9,35.8
		c0-1.7-1-2.7-2.4-2.7c-1,0-1.8,0.6-2.3,1.4c-0.1,0.2-0.2,0.4-0.2,0.7c0,1.9,0.9,3.3,2.6,3.3C481,38.6,481.9,37.5,481.9,35.8z"/>
</g>
<g class="st2">
	<path d="M555.9,27.9v1l-5.1,10.7h-1.6l5.1-10.4v0h-5.7v-1.3H555.9z"/>
</g>
<g class="st2">
	<path d="M620.7,36.7c0-1.5,0.9-2.5,2.3-3.1l0-0.1c-1.3-0.6-1.9-1.6-1.9-2.6c0-1.9,1.6-3.1,3.6-3.1c2.3,0,3.4,1.4,3.4,2.9
		c0,1-0.5,2.1-1.9,2.7v0.1c1.5,0.6,2.4,1.6,2.4,3c0,2-1.7,3.4-4,3.4C622.2,39.8,620.7,38.4,620.7,36.7z M627,36.6
		c0-1.4-1-2.1-2.6-2.6c-1.4,0.4-2.1,1.3-2.1,2.4c-0.1,1.2,0.8,2.2,2.3,2.2C626.1,38.7,627,37.8,627,36.6z M622.7,30.7
		c0,1.2,0.9,1.8,2.2,2.2c1-0.3,1.8-1.1,1.8-2.1c0-0.9-0.6-1.9-2-1.9C623.4,28.9,622.7,29.7,622.7,30.7z"/>
</g>
<g class="st2">
	<path d="M299.7,43.8v1.6h-11v-1.6H299.7z"/>
</g>
<polyline class="st0" points="445.5,41.2 445.5,46.9 435.3,46.9 435.3,41.2 "/>
<rect x="574.6" y="37.1" class="st0" width="22" height="14"/>
<polyline class="st0" points="590.7,41.2 590.7,46.9 580.5,46.9 580.5,41.2 "/>
<rect x="590.7" y="81.4" class="st0" width="22" height="14"/>
<polyline class="st0" points="606.8,85.5 606.8,91.2 596.6,91.2 596.6,85.5 "/>
<g>
	<g>
		<path class="st3" d="M116.6,77.7c0,5.1,0,10.6,0,10.6h362.9l0,0V69.5"/>
		<g>
			<path d="M116.6,79.5l3.6,2.2l0.1-0.1l-2.3-5.9c-0.5-2-0.9-4.1-1.4-6.1c-0.5,2-0.9,4.1-1.4,6.1l-2.3,5.9l0.1,0.1L116.6,79.5z"/>
		</g>
	</g>
</g>
<g>
	<g>
		<path class="st3" d="M44,77.7c0,8.7,0,21.3,0,21.3h580.3l0,0V69.6"/>
		<g>
			<path d="M44,79.5l3.6,2.2l0.1-0.1l-2.3-5.9c-0.5-2-0.9-4.1-1.4-6.1c-0.5,2-0.9,4.1-1.4,6.1l-2.3,5.9l0.1,0.1L44,79.5z"/>
		</g>
	</g>
</g>
<g>
	<g>
		<line class="st1" x1="57.8" y1="55.7" x2="94.6" y2="55.7"/>
		<g>
			<path d="M92.8,55.7l-2.2-3.6l0.1-0.1l5.9,2.3c2,0.5,4.1,0.9,6.1,1.4c-2,0.5-4.1,0.9-6.1,1.4l-5.9,2.3l-0.1-0.1L92.8,55.7z"/>
		</g>
	</g>
</g>
<g>
	<g>
		<line class="st1" x1="130.4" y1="55.7" x2="167.2" y2="55.7"/>
		<g>
			<path d="M165.4,55.7l-2.2-3.6l0.1-0.1l5.9,2.3c2,0.5,4.1,0.9,6.1,1.4c-2,0.5-4.1,0.9-6.1,1.4l-5.9,2.3l-0.1-0.1L165.4,55.7z"/>
		</g>
	</g>
</g>
<g>
	<g>
		<line class="st1" x1="203" y1="55.7" x2="239.8" y2="55.7"/>
		<g>
			<path d="M238,55.7l-2.2-3.6l0.1-0.1l5.9,2.3c2,0.5,4.1,0.9,6.1,1.4c-2,0.5-4.1,0.9-6.1,1.4l-5.9,2.3l-0.1-0.1L238,55.7z"/>
		</g>
	</g>
</g>
<g>
	<g>
		<line class="st1" x1="261.8" y1="55.7" x2="312.4" y2="55.7"/>
		<g>
			<path d="M310.6,55.7l-2.2-3.6l0.1-0.1l5.9,2.3c2,0.5,4.1,0.9,6.1,1.4c-2,0.5-4.1,0.9-6.1,1.4l-5.9,2.3l-0.1-0.1L310.6,55.7z"/>
		</g>
	</g>
</g>
<g>
	<g>
		<line class="st1" x1="348.1" y1="55.7" x2="384.9" y2="55.7"/>
		<g>
			<path d="M383.1,55.7l-2.2-3.6L381,52l5.9,2.3c2,0.5,4.1,0.9,6.1,1.4c-2,0.5-4.1,0.9-6.1,1.4l-5.9,2.3l-0.1-0.1L383.1,55.7z"/>
		</g>
	</g>
</g>
<g>
	<g>
		<line class="st1" x1="420.7" y1="55.7" x2="457.5" y2="55.7"/>
		<g>
			<path d="M455.7,55.7l-2.2-3.6l0.1-0.1l5.9,2.3c2,0.5,4.1,0.9,6.1,1.4c-2,0.5-4.1,0.9-6.1,1.4l-5.9,2.3l-0.1-0.1L455.7,55.7z"/>
		</g>
	</g>
</g>
<g>
	<g>
		<line class="st1" x1="493.3" y1="55.7" x2="530.1" y2="55.7"/>
		<g>
			<path d="M528.3,55.7l-2.2-3.6l0.1-0.1l5.9,2.3c2,0.5,4.1,0.9,6.1,1.4c-2,0.5-4.1,0.9-6.1,1.4l-5.9,2.3l-0.1-0.1L528.3,55.7z"/>
		</g>
	</g>
</g>
<g>
	<g>
		<line class="st1" x1="565.9" y1="55.7" x2="602.7" y2="55.7"/>
		<g>
			<path d="M600.9,55.7l-2.2-3.6l0.1-0.1l5.9,2.3c2,0.5,4.1,0.9,6.1,1.4c-2,0.5-4.1,0.9-6.1,1.4l-5.9,2.3l-0.1-0.1L600.9,55.7z"/>
		</g>
	</g>
</g>
<g>
	<g>
		<line class="st1" x1="3.7" y1="55.7" x2="22" y2="55.7"/>
		<g>
			<path d="M20.2,55.7L18,52.1l0.1-0.1l5.9,2.3c2,0.5,4.1,0.9,6.1,1.4c-2,0.5-4.1,0.9-6.1,1.4l-5.9,2.3H18L20.2,55.7z"/>
		</g>
	</g>
</g>
<circle class="st0" cx="44" cy="55.7" r="13.8"/>
<circle class="st0" cx="116.6" cy="55.7" r="13.8"/>
<circle class="st0" cx="189.2" cy="55.7" r="13.8"/>
<ellipse transform="matrix(0.2298 -0.9732 0.9732 0.2298 147.4407 297.6993)" class="st0" cx="261.8" cy="55.7" rx="13.8" ry="13.8"/>
<circle class="st0" cx="334.3" cy="55.7" r="13.8"/>
<circle class="st0" cx="406.9" cy="55.7" r="13.8"/>
<circle class="st0" cx="479.5" cy="55.7" r="13.8"/>
<circle class="st0" cx="552.1" cy="55.7" r="13.8"/>
<circle class="st0" cx="624.7" cy="55.7" r="13.8"/>
<circle class="st0" cx="116.6" cy="55.7" r="13.8"/>
<g>
	<path d="M78.9,47.4V49h-11v-1.6H78.9z"/>
</g>
<g>
	<path d="M151.5,47.4V49h-11v-1.6H151.5z"/>
</g>
<g>
	<path d="M224.1,47.4V49h-11v-1.6H224.1z"/>
</g>
<g>
	<g>
		<polyline class="st3" points="116.6,41.9 116.6,23.1 334.7,23.1 334.7,23.1 334.7,33.8 		"/>
		<g>
			<path d="M334.7,32l3.6-2.2l0.1,0.1l-2.3,5.9c-0.5,2-0.9,4.1-1.4,6.1c-0.5-2-0.9-4.1-1.4-6.1l-2.3-5.9l0.1-0.1L334.7,32z"/>
		</g>
	</g>
</g>
<line class="st4" x1="334.3" y1="69.6" x2="334.3" y2="88.4"/>
<g>
	<path d="M496,77.4V79h-11v-1.6H496z"/>
</g>
<g>
	<path d="M350.9,77.4V79h-11v-1.6H350.9z"/>
</g>
<g class="st2">
	<path d="M213.8,11.5c0-0.7,0.4-1.1,1.1-1.1s1.1,0.5,1.1,1.1c0,0.6-0.4,1.1-1.1,1.1C214.2,12.6,213.8,12.1,213.8,11.5z"/>
</g>
</svg>
